<svg width="393" height="47" viewBox="0 0 393 47" fill="none" xmlns="http://www.w3.org/2000/svg">
<rect y="0.5" width="131" height="46" rx="12" fill="#34C94B"/>
<path d="M38.6836 25.6289C38.3789 25.3242 37.8203 25.3242 37.5156 25.6289C37.2109 25.9336 37.2109 26.4922 37.5156 26.7969L40.207 29.4375H34.0625C33.8086 29.4375 33.5547 29.3359 33.4023 29.1328L31.4219 26.543C31.168 26.1875 30.6602 26.0859 30.3047 26.3906C29.9492 26.6445 29.8477 27.1523 30.1523 27.5078L32.082 30.0977C32.5391 30.707 33.25 31.0625 34.0625 31.0625H40.207L37.5156 33.7539C37.2109 34.0586 37.2109 34.6172 37.5156 34.9219C37.668 35.0742 37.8711 35.125 38.125 35.125C38.3281 35.125 38.5312 35.0742 38.6836 34.9219L42.7461 30.8594C43.0508 30.5547 43.0508 29.9961 42.7461 29.6914L38.6836 25.6289ZM34.0625 18.0625H40.207L37.5156 20.7539C37.2109 21.0586 37.2109 21.6172 37.5156 21.9219C37.668 22.0742 37.8711 22.125 38.125 22.125C38.3281 22.125 38.5312 22.0742 38.6836 21.9219L42.7461 17.8594C43.0508 17.5547 43.0508 16.9961 42.7461 16.6914L38.6836 12.6289C38.3789 12.3242 37.8203 12.3242 37.5156 12.6289C37.2109 12.9336 37.2109 13.4922 37.5156 13.7969L40.207 16.4375H34.0625C33.25 16.4375 32.5391 16.8438 32.082 17.4531L23.2969 29.1328C23.1445 29.3359 22.9414 29.4375 22.6875 29.4375H17.8125C17.3555 29.4375 17 29.8438 17 30.25C17 30.707 17.3555 31.0625 17.8125 31.0625H22.6875C23.4492 31.0625 24.1602 30.707 24.6172 30.0977L33.4023 18.418C33.5547 18.2148 33.8086 18.0625 34.0625 18.0625ZM17.8125 18.0625H22.6875C22.9414 18.0625 23.1445 18.2148 23.2969 18.418L25.2773 21.0078C25.4297 21.2109 25.6836 21.3125 25.9375 21.3125C26.0898 21.3125 26.2422 21.2617 26.3945 21.1602C26.75 20.9062 26.8516 20.3984 26.5469 20.043L24.6172 17.4531C24.1602 16.8438 23.4492 16.4375 22.6875 16.4375H17.8125C17.3555 16.4375 17 16.8438 17 17.25C17 17.707 17.3555 18.0625 17.8125 18.0625Z" fill="white"/>
<path d="M63.5997 19.853C63.5277 19.979 63.4497 20.072 63.3657 20.132C63.2877 20.186 63.1887 20.213 63.0687 20.213C62.9427 20.213 62.8047 20.168 62.6547 20.078C62.5107 19.982 62.3367 19.877 62.1327 19.763C61.9287 19.649 61.6887 19.547 61.4127 19.457C61.1427 19.361 60.8217 19.313 60.4497 19.313C60.1137 19.313 59.8197 19.355 59.5677 19.439C59.3157 19.517 59.1027 19.628 58.9287 19.772C58.7607 19.916 58.6347 20.09 58.5507 20.294C58.4667 20.492 58.4247 20.711 58.4247 20.951C58.4247 21.257 58.5087 21.512 58.6767 21.716C58.8507 21.92 59.0787 22.094 59.3607 22.238C59.6427 22.382 59.9637 22.511 60.3237 22.625C60.6837 22.739 61.0527 22.862 61.4307 22.994C61.8087 23.12 62.1777 23.27 62.5377 23.444C62.8977 23.612 63.2187 23.828 63.5007 24.092C63.7827 24.35 64.0077 24.668 64.1757 25.046C64.3497 25.424 64.4367 25.883 64.4367 26.423C64.4367 27.011 64.3347 27.563 64.1307 28.079C63.9327 28.589 63.6387 29.036 63.2487 29.42C62.8647 29.798 62.3937 30.098 61.8357 30.32C61.2777 30.536 60.6387 30.644 59.9187 30.644C59.5047 30.644 59.0967 30.602 58.6947 30.518C58.2927 30.44 57.9057 30.326 57.5337 30.176C57.1677 30.026 56.8227 29.846 56.4987 29.636C56.1747 29.426 55.8867 29.192 55.6347 28.934L56.3457 27.773C56.4057 27.689 56.4837 27.62 56.5797 27.566C56.6757 27.506 56.7777 27.476 56.8857 27.476C57.0357 27.476 57.1977 27.539 57.3717 27.665C57.5457 27.785 57.7527 27.92 57.9927 28.07C58.2327 28.22 58.5117 28.358 58.8297 28.484C59.1537 28.604 59.5407 28.664 59.9907 28.664C60.6807 28.664 61.2147 28.502 61.5927 28.178C61.9707 27.848 62.1597 27.377 62.1597 26.765C62.1597 26.423 62.0727 26.144 61.8987 25.928C61.7307 25.712 61.5057 25.532 61.2237 25.388C60.9417 25.238 60.6207 25.112 60.2607 25.01C59.9007 24.908 59.5347 24.797 59.1627 24.677C58.7907 24.557 58.4247 24.413 58.0647 24.245C57.7047 24.077 57.3837 23.858 57.1017 23.588C56.8197 23.318 56.5917 22.982 56.4177 22.58C56.2497 22.172 56.1657 21.671 56.1657 21.077C56.1657 20.603 56.2587 20.141 56.4447 19.691C56.6367 19.241 56.9127 18.842 57.2727 18.494C57.6327 18.146 58.0767 17.867 58.6047 17.657C59.1327 17.447 59.7387 17.342 60.4227 17.342C61.1907 17.342 61.8987 17.462 62.5467 17.702C63.1947 17.942 63.7467 18.278 64.2027 18.71L63.5997 19.853ZM68.5476 22.256C68.9076 21.92 69.3036 21.647 69.7356 21.437C70.1676 21.227 70.6746 21.122 71.2566 21.122C71.7606 21.122 72.2076 21.209 72.5976 21.383C72.9876 21.551 73.3116 21.791 73.5696 22.103C73.8336 22.409 74.0316 22.778 74.1636 23.21C74.3016 23.636 74.3706 24.107 74.3706 24.623V30.5H72.1476V24.623C72.1476 24.059 72.0186 23.624 71.7606 23.318C71.5026 23.006 71.1096 22.85 70.5816 22.85C70.1976 22.85 69.8376 22.937 69.5016 23.111C69.1656 23.285 68.8476 23.522 68.5476 23.822V30.5H66.3246V17.126H68.5476V22.256ZM84.6907 21.266V30.5H83.3317C83.0377 30.5 82.8517 30.365 82.7737 30.095L82.6207 29.357C82.2427 29.741 81.8257 30.053 81.3697 30.293C80.9137 30.527 80.3767 30.644 79.7587 30.644C79.2547 30.644 78.8077 30.56 78.4177 30.392C78.0337 30.218 77.7097 29.975 77.4457 29.663C77.1817 29.351 76.9807 28.982 76.8427 28.556C76.7107 28.124 76.6447 27.65 76.6447 27.134V21.266H78.8677V27.134C78.8677 27.698 78.9967 28.136 79.2547 28.448C79.5187 28.754 79.9117 28.907 80.4337 28.907C80.8177 28.907 81.1777 28.823 81.5137 28.655C81.8497 28.481 82.1677 28.244 82.4677 27.944V21.266H84.6907ZM87.7929 30.5V22.94L86.9919 22.814C86.8179 22.778 86.6769 22.718 86.5689 22.634C86.4669 22.544 86.4159 22.418 86.4159 22.256V21.347H87.7929V20.663C87.7929 20.135 87.8709 19.661 88.0269 19.241C88.1889 18.821 88.4169 18.464 88.7109 18.17C89.0109 17.876 89.3739 17.651 89.7999 17.495C90.2259 17.339 90.7059 17.261 91.2399 17.261C91.6659 17.261 92.0619 17.318 92.4279 17.432L92.3829 18.548C92.3769 18.632 92.3529 18.701 92.3109 18.755C92.2689 18.803 92.2119 18.842 92.1399 18.872C92.0739 18.896 91.9959 18.914 91.9059 18.926C91.8159 18.932 91.7199 18.935 91.6179 18.935C91.3539 18.935 91.1169 18.965 90.9069 19.025C90.7029 19.079 90.5289 19.178 90.3849 19.322C90.2409 19.46 90.1299 19.646 90.0519 19.88C89.9799 20.108 89.9439 20.393 89.9439 20.735V21.347H92.3469V22.931H90.0159V30.5H87.7929ZM94.494 30.5V22.94L93.693 22.814C93.519 22.778 93.378 22.718 93.27 22.634C93.168 22.544 93.117 22.418 93.117 22.256V21.347H94.494V20.663C94.494 20.135 94.572 19.661 94.728 19.241C94.89 18.821 95.118 18.464 95.412 18.17C95.712 17.876 96.075 17.651 96.501 17.495C96.927 17.339 97.407 17.261 97.941 17.261C98.367 17.261 98.763 17.318 99.129 17.432L99.084 18.548C99.078 18.632 99.054 18.701 99.012 18.755C98.97 18.803 98.913 18.842 98.841 18.872C98.775 18.896 98.697 18.914 98.607 18.926C98.517 18.932 98.421 18.935 98.319 18.935C98.055 18.935 97.818 18.965 97.608 19.025C97.404 19.079 97.23 19.178 97.086 19.322C96.942 19.46 96.831 19.646 96.753 19.88C96.681 20.108 96.645 20.393 96.645 20.735V21.347H99.048V22.931H96.717V30.5H94.494ZM102.797 17.126V30.5H100.574V17.126H102.797ZM111.211 24.821C111.211 24.533 111.169 24.263 111.085 24.011C111.007 23.753 110.887 23.528 110.725 23.336C110.563 23.144 110.356 22.994 110.104 22.886C109.858 22.772 109.57 22.715 109.24 22.715C108.598 22.715 108.091 22.898 107.719 23.264C107.353 23.63 107.119 24.149 107.017 24.821H111.211ZM106.972 26.162C107.008 26.636 107.092 27.047 107.224 27.395C107.356 27.737 107.53 28.022 107.746 28.25C107.962 28.472 108.217 28.64 108.511 28.754C108.811 28.862 109.141 28.916 109.501 28.916C109.861 28.916 110.17 28.874 110.428 28.79C110.692 28.706 110.92 28.613 111.112 28.511C111.31 28.409 111.481 28.316 111.625 28.232C111.775 28.148 111.919 28.106 112.057 28.106C112.243 28.106 112.381 28.175 112.471 28.313L113.11 29.123C112.864 29.411 112.588 29.654 112.282 29.852C111.976 30.044 111.655 30.2 111.319 30.32C110.989 30.434 110.65 30.515 110.302 30.563C109.96 30.611 109.627 30.635 109.303 30.635C108.661 30.635 108.064 30.53 107.512 30.32C106.96 30.104 106.48 29.789 106.072 29.375C105.664 28.955 105.343 28.439 105.109 27.827C104.875 27.209 104.758 26.495 104.758 25.685C104.758 25.055 104.86 24.464 105.064 23.912C105.268 23.354 105.559 22.871 105.937 22.463C106.321 22.049 106.786 21.722 107.332 21.482C107.884 21.242 108.505 21.122 109.195 21.122C109.777 21.122 110.314 21.215 110.806 21.401C111.298 21.587 111.721 21.86 112.075 22.22C112.429 22.574 112.705 23.012 112.903 23.534C113.107 24.05 113.209 24.641 113.209 25.307C113.209 25.643 113.173 25.871 113.101 25.991C113.029 26.105 112.891 26.162 112.687 26.162H106.972Z" fill="white"/>
<rect x="155.5" y="0.5" width="206" height="46" rx="11.5" fill="#121212"/>
<path d="M173.625 11.5625C173.625 11.1562 173.98 10.75 174.438 10.75H195.562C195.969 10.75 196.375 11.1562 196.375 11.5625C196.375 12.0195 195.969 12.375 195.562 12.375H174.438C173.98 12.375 173.625 12.0195 173.625 11.5625ZM172.812 14.8125C172.812 14.4062 173.168 14 173.625 14H196.375C196.781 14 197.188 14.4062 197.188 14.8125C197.188 15.2695 196.781 15.625 196.375 15.625H173.625C173.168 15.625 172.812 15.2695 172.812 14.8125ZM194.953 17.25C196.629 17.25 197.898 18.7227 197.746 20.3984V20.5508C197.543 20.5508 197.34 20.5 197.188 20.5C196.832 20.5 196.477 20.5508 196.121 20.6016L196.172 20.2461C196.223 19.5352 195.664 18.875 194.953 18.875H174.996C174.285 18.875 173.727 19.5352 173.777 20.2461L175.047 34.0586C175.098 34.668 175.656 35.125 176.266 35.125H190.281C190.789 35.7852 191.348 36.293 192.008 36.75H176.266C174.793 36.75 173.574 35.6328 173.422 34.2109L172.203 20.3984C172.051 18.7227 173.32 17.25 174.996 17.25H194.953ZM185 20.5C187.438 20.5 189.672 21.4141 191.195 22.8359C190.789 23.1914 190.383 23.5977 190.078 24.0039C188.961 22.9375 187.184 22.125 185 22.125C181.039 22.125 178.5 24.6641 178.5 27C178.5 29.3867 181.039 31.875 185 31.875C186.27 31.875 187.438 31.6211 188.402 31.1641C188.504 31.7227 188.656 32.2305 188.859 32.7383C187.691 33.2461 186.371 33.5 185 33.5C180.48 33.5 176.875 30.6055 176.875 27C176.875 23.4453 180.48 20.5 185 20.5ZM183.781 27.2031C183.781 26.6445 184.289 26.1875 185 26.1875C185.66 26.1875 186.219 26.6445 186.219 27.2031C186.219 27.7617 185.66 28.2188 185 28.2188C184.289 28.2188 183.781 27.7617 183.781 27.2031ZM198 28.625H200.438C200.844 28.625 201.25 29.0312 201.25 29.4375C201.25 29.8945 200.844 30.25 200.438 30.25H198V32.6875C198 33.1445 197.594 33.5 197.188 33.5C196.73 33.5 196.375 33.1445 196.375 32.6875V30.25H193.938C193.48 30.25 193.125 29.8945 193.125 29.4375C193.125 29.0312 193.48 28.625 193.938 28.625H196.375V26.1875C196.375 25.7812 196.73 25.375 197.188 25.375C197.594 25.375 198 25.7812 198 26.1875V28.625ZM204.5 29.4375C204.5 33.5 201.199 36.75 197.188 36.75C193.125 36.75 189.875 33.5 189.875 29.4375C189.875 25.4258 193.125 22.125 197.188 22.125C201.199 22.125 204.5 25.4258 204.5 29.4375ZM197.188 23.75C194.039 23.75 191.5 26.3398 191.5 29.4375C191.5 32.5859 194.039 35.125 197.188 35.125C200.285 35.125 202.875 32.5859 202.875 29.4375C202.875 26.3398 200.285 23.75 197.188 23.75Z" fill="#34C94B"/>
<path d="M226.226 27.606H221.222L220.394 30H217.748L222.266 17.418H225.2L229.718 30H227.054L226.226 27.606ZM225.542 25.59L223.724 20.334L221.906 25.59H225.542ZM231.009 24.978C231.009 23.97 231.207 23.076 231.603 22.296C232.011 21.516 232.563 20.916 233.259 20.496C233.955 20.076 234.729 19.866 235.581 19.866C236.229 19.866 236.847 20.01 237.435 20.298C238.023 20.574 238.491 20.946 238.839 21.414V16.68H241.395V30H238.839V28.524C238.527 29.016 238.089 29.412 237.525 29.712C236.961 30.012 236.307 30.162 235.563 30.162C234.723 30.162 233.955 29.946 233.259 29.514C232.563 29.082 232.011 28.476 231.603 27.696C231.207 26.904 231.009 25.998 231.009 24.978ZM238.857 25.014C238.857 24.402 238.737 23.88 238.497 23.448C238.257 23.004 237.933 22.668 237.525 22.44C237.117 22.2 236.679 22.08 236.211 22.08C235.743 22.08 235.311 22.194 234.915 22.422C234.519 22.65 234.195 22.986 233.943 23.43C233.703 23.862 233.583 24.378 233.583 24.978C233.583 25.578 233.703 26.106 233.943 26.562C234.195 27.006 234.519 27.348 234.915 27.588C235.323 27.828 235.755 27.948 236.211 27.948C236.679 27.948 237.117 27.834 237.525 27.606C237.933 27.366 238.257 27.03 238.497 26.598C238.737 26.154 238.857 25.626 238.857 25.014ZM243.458 24.978C243.458 23.97 243.656 23.076 244.052 22.296C244.46 21.516 245.012 20.916 245.708 20.496C246.404 20.076 247.178 19.866 248.03 19.866C248.678 19.866 249.296 20.01 249.884 20.298C250.472 20.574 250.94 20.946 251.288 21.414V16.68H253.844V30H251.288V28.524C250.976 29.016 250.538 29.412 249.974 29.712C249.41 30.012 248.756 30.162 248.012 30.162C247.172 30.162 246.404 29.946 245.708 29.514C245.012 29.082 244.46 28.476 244.052 27.696C243.656 26.904 243.458 25.998 243.458 24.978ZM251.306 25.014C251.306 24.402 251.186 23.88 250.946 23.448C250.706 23.004 250.382 22.668 249.974 22.44C249.566 22.2 249.128 22.08 248.66 22.08C248.192 22.08 247.76 22.194 247.364 22.422C246.968 22.65 246.644 22.986 246.392 23.43C246.152 23.862 246.032 24.378 246.032 24.978C246.032 25.578 246.152 26.106 246.392 26.562C246.644 27.006 246.968 27.348 247.364 27.588C247.772 27.828 248.204 27.948 248.66 27.948C249.128 27.948 249.566 27.834 249.974 27.606C250.382 27.366 250.706 27.03 250.946 26.598C251.186 26.154 251.306 25.626 251.306 25.014ZM264.029 22.098V26.922C264.029 27.258 264.107 27.504 264.263 27.66C264.431 27.804 264.707 27.876 265.091 27.876H266.261V30H264.677C262.553 30 261.491 28.968 261.491 26.904V22.098H260.303V20.028H261.491V17.562H264.029V20.028H266.261V22.098H264.029ZM272.751 30.162C271.791 30.162 270.927 29.952 270.159 29.532C269.391 29.1 268.785 28.494 268.341 27.714C267.909 26.934 267.693 26.034 267.693 25.014C267.693 23.994 267.915 23.094 268.359 22.314C268.815 21.534 269.433 20.934 270.213 20.514C270.993 20.082 271.863 19.866 272.823 19.866C273.783 19.866 274.653 20.082 275.433 20.514C276.213 20.934 276.825 21.534 277.269 22.314C277.725 23.094 277.953 23.994 277.953 25.014C277.953 26.034 277.719 26.934 277.251 27.714C276.795 28.494 276.171 29.1 275.379 29.532C274.599 29.952 273.723 30.162 272.751 30.162ZM272.751 27.966C273.207 27.966 273.633 27.858 274.029 27.642C274.437 27.414 274.761 27.078 275.001 26.634C275.241 26.19 275.361 25.65 275.361 25.014C275.361 24.066 275.109 23.34 274.605 22.836C274.113 22.32 273.507 22.062 272.787 22.062C272.067 22.062 271.461 22.32 270.969 22.836C270.489 23.34 270.249 24.066 270.249 25.014C270.249 25.962 270.483 26.694 270.951 27.21C271.431 27.714 272.031 27.966 272.751 27.966ZM287.111 16.68V30H284.591V16.68H287.111ZM291.128 18.84C290.684 18.84 290.312 18.702 290.012 18.426C289.724 18.138 289.58 17.784 289.58 17.364C289.58 16.944 289.724 16.596 290.012 16.32C290.312 16.032 290.684 15.888 291.128 15.888C291.572 15.888 291.938 16.032 292.226 16.32C292.526 16.596 292.676 16.944 292.676 17.364C292.676 17.784 292.526 18.138 292.226 18.426C291.938 18.702 291.572 18.84 291.128 18.84ZM292.37 20.028V30H289.85V20.028H292.37ZM297.63 21.486C297.954 21.006 298.398 20.616 298.962 20.316C299.538 20.016 300.192 19.866 300.924 19.866C301.776 19.866 302.544 20.076 303.228 20.496C303.924 20.916 304.47 21.516 304.866 22.296C305.274 23.064 305.478 23.958 305.478 24.978C305.478 25.998 305.274 26.904 304.866 27.696C304.47 28.476 303.924 29.082 303.228 29.514C302.544 29.946 301.776 30.162 300.924 30.162C300.18 30.162 299.526 30.018 298.962 29.73C298.41 29.43 297.966 29.046 297.63 28.578V30H295.11V16.68H297.63V21.486ZM302.904 24.978C302.904 24.378 302.778 23.862 302.526 23.43C302.286 22.986 301.962 22.65 301.554 22.422C301.158 22.194 300.726 22.08 300.258 22.08C299.802 22.08 299.37 22.2 298.962 22.44C298.566 22.668 298.242 23.004 297.99 23.448C297.75 23.892 297.63 24.414 297.63 25.014C297.63 25.614 297.75 26.136 297.99 26.58C298.242 27.024 298.566 27.366 298.962 27.606C299.37 27.834 299.802 27.948 300.258 27.948C300.726 27.948 301.158 27.828 301.554 27.588C301.962 27.348 302.286 27.006 302.526 26.562C302.778 26.118 302.904 25.59 302.904 24.978ZM310.079 21.576C310.403 21.048 310.823 20.634 311.339 20.334C311.867 20.034 312.467 19.884 313.139 19.884V22.53H312.473C311.681 22.53 311.081 22.716 310.673 23.088C310.277 23.46 310.079 24.108 310.079 25.032V30H307.559V20.028H310.079V21.576ZM314.439 24.978C314.439 23.97 314.637 23.076 315.033 22.296C315.441 21.516 315.987 20.916 316.671 20.496C317.367 20.076 318.141 19.866 318.993 19.866C319.737 19.866 320.385 20.016 320.937 20.316C321.501 20.616 321.951 20.994 322.287 21.45V20.028H324.825V30H322.287V28.542C321.963 29.01 321.513 29.4 320.937 29.712C320.373 30.012 319.719 30.162 318.975 30.162C318.135 30.162 317.367 29.946 316.671 29.514C315.987 29.082 315.441 28.476 315.033 27.696C314.637 26.904 314.439 25.998 314.439 24.978ZM322.287 25.014C322.287 24.402 322.167 23.88 321.927 23.448C321.687 23.004 321.363 22.668 320.955 22.44C320.547 22.2 320.109 22.08 319.641 22.08C319.173 22.08 318.741 22.194 318.345 22.422C317.949 22.65 317.625 22.986 317.373 23.43C317.133 23.862 317.013 24.378 317.013 24.978C317.013 25.578 317.133 26.106 317.373 26.562C317.625 27.006 317.949 27.348 318.345 27.588C318.753 27.828 319.185 27.948 319.641 27.948C320.109 27.948 320.547 27.834 320.955 27.606C321.363 27.366 321.687 27.03 321.927 26.598C322.167 26.154 322.287 25.626 322.287 25.014ZM330.056 21.576C330.38 21.048 330.8 20.634 331.316 20.334C331.844 20.034 332.444 19.884 333.116 19.884V22.53H332.45C331.658 22.53 331.058 22.716 330.65 23.088C330.254 23.46 330.056 24.108 330.056 25.032V30H327.536V20.028H330.056V21.576ZM344.603 20.028L338.429 34.716H335.747L337.907 29.748L333.911 20.028H336.737L339.311 26.994L341.921 20.028H344.603Z" fill="#34C94B"/>
<rect x="155.5" y="0.5" width="206" height="46" rx="11.5" stroke="#34C94B"/>
</svg>
